<?xml version="1.0" encoding="utf-8"?>
<!-- Generator: Adobe Illustrator 24.1.0, SVG Export Plug-In . SVG Version: 6.00 Build 0)  -->
<svg version="1.1" id="Layer_1" xmlns="http://www.w3.org/2000/svg" xmlns:xlink="http://www.w3.org/1999/xlink" x="0px" y="0px"
	 viewBox="0 0 141.7 141.7" style="enable-background:new 0 0 141.7 141.7;" xml:space="preserve">
<style type="text/css">
	.st0{fill-rule:evenodd;clip-rule:evenodd;fill:#A9C0DA;}
	.st1{fill:#33B5F4;}
	.st2{fill:#81D5FF;}
	.st3{fill:#FFFFFF;}
	.st4{fill-rule:evenodd;clip-rule:evenodd;fill:#33B5F4;}
	.st5{fill:#EB5757;}
	.st6{fill-rule:evenodd;clip-rule:evenodd;fill:#D03A3A;}
</style>
<path class="st0" d="M72.7,83.1c3,3,2.9,8-0.2,11.1L46.3,121c-3,3.1-7.9,3.2-10.9,0.2c-3-3-2.9-8,0.2-11.1l26.2-26.8
	C64.9,80.1,69.7,80,72.7,83.1z M42,114.6c1,1.1,1,2.8-0.1,3.9l-0.1,0.1c-1.1,1.1-2.8,1.1-3.8,0.1c-1-1.1-1-2.8,0.1-3.9l0.1-0.1
	C39.3,113.6,41,113.6,42,114.6z"/>
<path class="st1" d="M60.7,46.2c-13.9,14.3-14.3,37.1-0.7,50.9c13.5,13.8,35.8,13.5,49.7-0.8l18-18.4c8.9-9.2,9.1-20.2,0.4-29.1
	l-19.3-19.7c-8.7-8.9-23-8.7-31.9,0.5L60.7,46.2z"/>
<path class="st2" d="M58.3,48.7c-12.6,12.9-12.9,33.5-0.7,46.1c12.2,12.5,32.4,12.2,45-0.7L123,73.1c8.9-9.2,9.1-20.2,0.4-29.1
	l-16.3-16.7c-8.7-8.9-19.5-8.7-28.4,0.4L58.3,48.7z"/>
<path class="st3" d="M118.5,63.5c2.7-2.7,2.7-7.1,0.1-9.7l-21-21.5c-2.6-2.6-6.8-2.6-9.5,0.1L73.7,47.2c-2.7,2.7-2.7,7.1-0.1,9.7
	l21,21.5c2.6,2.6,6.8,2.6,9.5-0.1L118.5,63.5z"/>
<path class="st4" d="M95.2,34.8l21,21.5c1.3,1.3,1.3,3.5-0.1,4.8l-14.4,14.8c-1.3,1.4-3.4,1.4-4.7,0.1L76,54.5
	c-1.3-1.3-1.3-3.5,0.1-4.8l14.4-14.8C91.8,33.5,93.9,33.5,95.2,34.8z M118.6,53.8c2.6,2.6,2.5,7-0.1,9.7L104,78.3
	c-2.7,2.7-6.9,2.8-9.5,0.1l-21-21.5c-2.6-2.6-2.5-7,0.1-9.7l14.4-14.8c2.7-2.7,6.9-2.8,9.5-0.1L118.6,53.8z"/>
<path class="st1" d="M81.4,84.7c1.9,2,1.9,5.2-0.1,7.3c-2,2-5.2,2.1-7.1,0.1c-1.9-2-1.9-5.2,0.1-7.3C76.3,82.7,79.5,82.7,81.4,84.7z
	"/>
<path class="st1" d="M67.4,70.3c1.9,2,1.9,5.2-0.1,7.3c-2,2-5.2,2.1-7.1,0.1c-1.9-2-1.9-5.2,0.1-7.3C62.3,68.4,65.5,68.4,67.4,70.3z
	"/>
<path class="st5" d="M25.4,97.4C15,97.4,6.6,88.8,6.6,78.2c0-3.3,0.9-7.1,2.7-11.2c1.6-3.9,4.1-8.3,7.3-12.8c2.7-3.8,5.2-7,7-8.9
	l1.5-1.7c0.3-0.3,0.7-0.3,1,0l1.5,1.7c1.8,2.1,4.3,5.3,7,9.1c3.3,4.7,5.6,9.1,7.4,13c1.8,4.1,2.7,7.9,2.7,11
	C44.3,88.8,35.9,97.4,25.4,97.4z"/>
<path class="st6" d="M15.7,92.6c2.8,1.7,6.1,2.6,9.6,2.6c10.5,0,19-8.4,19.1-18.6c0-3.1-0.9-6.8-2.7-10.8c-1.5-3.2-3.3-6.7-5.8-10.3
	c4.5,15.6,4.2,36-20.1,37.1C15.8,92.6,15.8,92.6,15.7,92.6z"/>
</svg>
