<?xml version="1.0" encoding="utf-8"?>
<!-- Generator: Adobe Illustrator 24.1.0, SVG Export Plug-In . SVG Version: 6.00 Build 0)  -->
<svg version="1.1" id="Layer_1" xmlns="http://www.w3.org/2000/svg" xmlns:xlink="http://www.w3.org/1999/xlink" x="0px" y="0px"
	 viewBox="0 0 141.7 141.7" style="enable-background:new 0 0 141.7 141.7;" xml:space="preserve">
<style type="text/css">
	.st0{fill:#E2E8ED;}
	.st1{fill:#00B097;}
	.st2{fill:#F2F4F8;}
	.st3{fill:#52CAB8;}
	.st4{fill:#FF763C;}
	.st5{fill:#FFFFFF;}
</style>
<ellipse class="st0" cx="36.4" cy="60.5" rx="10.9" ry="2.1"/>
<path class="st1" d="M60.4,24.7L9.1,66.9l69.3,65.1L133,87.9L60.4,24.7z"/>
<path class="st2" d="M128.7,65.7L128.7,65.7L61.6,6L10.1,45.9l0.1,0.1l-0.1,0.1l0.1,0.1l-0.1,0.1l0.1,0.1l-0.1,0.1l0.1,0.1l-0.1,0.1
	l0.1,0.1L10.1,47l0.1,0.1l-0.1,0.1l0.1,0.1l-0.1,0.1l0.1,0.1l-0.1,0.1l0.1,0.1l-0.1,0.1l0.1,0.1L10.1,48l0.1,0.1l-0.1,0.1l0.1,0.1
	l-0.1,0.1l0.1,0.1l-0.1,0.1l0.1,0.1l-0.1,0.1l0.1,0.1L10.1,49l0.1,0.1l-0.1,0.1l0.1,0.1l-0.1,0.1l0.1,0.1l-0.1,0.1l0.1,0.1l-0.1,0.1
	l0.1,0.1L10.1,50l0.1,0.1l-0.1,0.1l0.1,0.1l-0.1,0.1l0.1,0.1l-0.1,0.1l0.1,0.1l-0.1,0.1l0.1,0.1L10.1,51l0.1,0.1l-0.1,0.1l0.1,0.1
	l-0.1,0.1l0.1,0.1l-0.1,0.1l0.1,0.1l-0.1,0.1l0.1,0.1l-0.1,0.1l0.1,0.1l-0.1,0.1l0.1,0.1l-0.1,0.1l0.1,0.1l-0.1,0.1l0.1,0.1
	l-0.1,0.1l0.1,0.1l-0.1,0.1l0.1,0.1l-0.1,0.1l0.1,0.1l-0.1,0.1l0.1,0.1l-0.1,0.1l0.1,0.1l-0.1,0.1l0.1,0.1l-0.1,0.1l0.1,0.1
	l-0.1,0.1l0.1,0.1l-0.1,0.1l0.1,0.1l-0.1,0.1l0.1,0.1l-0.1,0.1l0.1,0.1l-0.1,0.1l0.1,0.1l-0.1,0.1l0.1,0.1l-0.1,0.1l0.1,0.1
	l-0.1,0.1l0.1,0.1l-0.1,0.1l0.1,0.1l-0.1,0.1l0.1,0.1l-0.1,0.1l0.1,0.1l-0.1,0.1l0.1,0.1l-0.1,0.1l0.1,0.1l-0.1,0.1l0.1,0.1
	l-0.1,0.1l0.1,0.1l-0.1,0.1l0.1,0.1l-0.1,0.1l0.1,0.1l-0.1,0.1l0.1,0.1l-0.1,0.1l0.1,0.1l-0.1,0.1l0.1,0.1l-0.1,0.1l0.1,0.1
	l-0.1,0.1l0.1,0.1l-0.1,0.1l0.1,0.1l-0.1,0.1l0.1,0.1l-0.1,0.1l0.1,0.1l-0.1,0.1l0.1,0.1l-0.1,0.1l0.1,0.1l-0.1,0.1l0.1,0.1
	l-0.1,0.1l0.1,0.1l-0.1,0.1l0.1,0.1l-0.1,0.1l0.1,0.1l-0.1,0.1l0.1,0.1l-0.1,0.1l0.1,0.1L10.1,61l0.1,0.1l-0.1,0.1l0.1,0.1l-0.1,0.1
	l0.1,0.1l-0.1,0.1l0.1,0.1l-0.1,0.1l0.1,0.1L10.1,62l0.1,0.1l-0.1,0.1l0.1,0.1l-0.1,0.1l0.1,0.1l-0.1,0.1l0.1,0.1l-0.1,0.1l0.1,0.1
	L10.1,63l0.1,0.1l-0.1,0.1l0.1,0.1l-0.1,0.1l0.1,0.1l-0.1,0.1l0.1,0.1l-0.1,0.1l0.1,0.1L10.1,64l0.1,0.1l-0.1,0.1l0.1,0.1l-0.1,0.1
	l0.1,0.1l-0.1,0.1l0.1,0.1l-0.1,0.1l0.1,0.1L10.1,65l0.1,0.1l-0.1,0.1l0.1,0.1l-0.1,0.1l0.1,0.1l-0.1,0.1l0.1,0.1l-0.1,0.1l0.1,0.1
	L10.1,66l0.1,0.1l-0.1,0.1l0.1,0.1l-0.1,1.6l66.2,60l52.5-41.7l-0.1-0.1l0.1-0.1l-0.1-0.1l0.1-0.1l-0.1-0.1l0.1-0.1l-0.1-0.1
	l0.1-0.1l-0.1-0.1l0.1-0.1l-0.1-0.1l0.1-0.1l-0.1-0.1l0.1-0.1l-0.1-0.1l0.1-0.1l-0.1-0.1l0.1-0.1l-0.1-0.1l0.1-0.1l-0.1-0.1l0.1-0.1
	l-0.1-0.1l0.1-0.1l-0.1-0.1l0.1-0.1l-0.1-0.1l0.1-0.1l-0.1-0.1l0.1-0.1l-0.1-0.1l0.1-0.1l-0.1-0.1l0.1-0.1l-0.1-0.1l0.1-0.1
	l-0.1-0.1l0.1-0.1l-0.1-0.1l0.1-0.1l-0.1-0.1l0.1-0.1l-0.1-0.1l0.1-0.1l-0.1-0.1l0.1-0.1l-0.1-0.1l0.1-0.1l-0.1-0.1l0.1-0.1
	l-0.1-0.1l0.1-0.1l-0.1-0.1l0.1-0.1l-0.1-0.1l0.1-0.1l-0.1-0.1l0.1-0.1l-0.1-0.1l0.1-0.1l-0.1-0.1l0.1-0.1l-0.1-0.1l0.1-0.1
	l-0.1-0.1l0.1-0.1l-0.1-0.1l0.1-0.1l-0.1-0.1l0.1-0.1l-0.1-0.1l0.1-0.1l-0.1-0.1l0.1-0.1l-0.1-0.1l0.1-0.1l-0.1-0.1l0.1-0.1
	l-0.1-0.1l0.1-0.1l-0.1-0.1l0.1-0.1l-0.1-0.1l0.1-0.1l-0.1-0.1l0.1-0.1l-0.1-0.1l0.1-0.1l-0.1-0.1l0.1-0.1l-0.1-0.1l0.1-0.1
	l-0.1-0.1l0.1-0.1l-0.1-0.1l0.1-0.1l-0.1-0.1l0.1-0.1l-0.1-0.1l0.1-0.1l-0.1-0.1l0.1-0.1l-0.1-0.1l0.1-0.1l-0.1-0.1l0.1-0.1
	l-0.1-0.1l0.1-0.1l-0.1-0.1l0.1-0.1l-0.1-0.1l0.1-0.1l-0.1-0.1l0.1-0.1l-0.1-0.1l0.1-0.1l-0.1-0.1l0.1-0.1l-0.1-0.1l0.1-0.1
	l-0.1-0.1l0.1-0.1l-0.1-0.1l0.1-0.1l-0.1-0.1l0.1-0.1l-0.1-0.1l0.1-0.1l-0.1-0.1l0.1-0.1l-0.1-0.1l0.1-0.1l-0.1-0.1l0.1-0.1
	l-0.1-0.1l0.1-0.1l-0.1-0.1l0.1-0.1l-0.1-0.1l0.1-0.1l-0.1-0.1l0.1-0.1l-0.1-0.1l0.1-0.1l-0.1-0.1l0.1-0.1l-0.1-0.1l0.1-0.1
	l-0.1-0.1l0.1-0.1l-0.1-0.1l0.1-0.1l-0.1-0.1l0.1-0.1l-0.1-0.1l0.1-0.1l-0.1-0.1l0.1-0.1l-0.1-0.1l0.1-0.1l-0.1-0.1l0.1-0.1
	l-0.1-0.1l0.1-0.1l-0.1-0.1l0.1-0.1l-0.1-0.1l0.1-0.1l-0.1-0.1l0.1-0.1l-0.1-0.1l0.1-0.1l-0.1-0.1l0.1-0.1l-0.1-0.1l0.1-0.1
	l-0.1-0.1l0.1-0.1l-0.1-0.1l0.1-0.1l-0.1-0.1l0.1-0.1l-0.1-0.1l0.1-0.1l-0.1-0.1l0.1-0.1l-0.1-0.1l0.1-0.1l-0.1-0.1l0.1-0.1
	l-0.1-0.1l0.1-0.1l-0.1-0.1l0.1-0.1l-0.1-0.1l0.1-0.1l-0.1-0.1l0.1-0.1l-0.1-0.1l0.1-0.1L128.7,65.7z"/>
<path class="st3" d="M63.8,1.3L9,43.7l69,64.6l54.8-42.4L63.8,1.3z"/>
<path class="st1" d="M18.9,38.6l-2.5,2l66.2,62.1l2.5-2L18.9,38.6z"/>
<path class="st4" d="M107.8,130.9l-6.6-6.2l-5.1,15.8c-0.7-7.2-2.9-13.9-6.3-19.5c-2-3.3-4.4-6.2-7.1-8.7l11.8-9.6
	c7.1,6.5,12,16.1,13.2,27.1L107.8,130.9z"/>
<path class="st1" d="M9.4,43.8c0,0-2.4,6.6-2.4,11.8s2.4,12.1,2.4,12.1l69,64.3c0,0-2.4-7.1-2.4-13c0-5.9,2.4-10.8,2.4-10.8
	S9.5,43.8,9.4,43.8z"/>
<path class="st5" d="M99.9,58.7l2,3.3c-1.2,2.7-2.2,4.9-3,6.4c-0.8,1.6-1.9,3.1-3.5,4.7c-2.4,2.4-4.8,3.7-7.3,3.9
	c-2.5,0.2-4.6-0.6-6.3-2.4c-0.7-0.7-1.3-1.4-1.9-2.2c-0.6-0.8-1.3-1.8-1.9-2.9l-6-10.9c-0.6-1-1.2-2-1.8-2.8
	c-0.6-0.9-1.2-1.6-1.8-2.2c-1.1-1.1-2.1-1.6-3-1.6c-0.9,0-2,0.7-3.3,2c-0.6,0.6-1.2,1.4-1.7,2.3c-0.5,0.9-0.8,1.6-1.2,2.3l-2-3.3
	c1-2.3,2-4.3,3-6.3c1-1.9,2.2-3.6,3.5-4.9c2.4-2.4,4.8-3.6,7.2-3.8c2.4-0.2,4.5,0.6,6.3,2.4c0.4,0.4,1,1.1,1.8,2.1
	c0.8,1,1.5,2,2.1,3l6,10.9c0.5,0.9,1.1,1.8,1.8,2.9c0.7,1,1.3,1.8,1.7,2.2c1.1,1.1,2.1,1.6,3.1,1.5c0.9-0.1,2-0.8,3.3-2.1
	c0.6-0.6,1.2-1.4,1.7-2.3C99.3,59.9,99.7,59.2,99.9,58.7z M65,22.6c1.5,1.5,2.2,3.3,2,5.5c-0.1,2.2-1,4-2.6,5.7
	c-1.6,1.6-3.5,2.5-5.7,2.6c-2.2,0.1-4-0.6-5.5-2c-1.5-1.5-2.2-3.3-2-5.5c0.1-2.2,1-4.1,2.6-5.7c1.6-1.6,3.5-2.5,5.7-2.6
	C61.7,20.4,63.6,21.1,65,22.6z"/>
</svg>
