<?xml version="1.0" encoding="utf-8"?>
<!-- Generator: Adobe Illustrator 24.1.0, SVG Export Plug-In . SVG Version: 6.00 Build 0)  -->
<svg version="1.1" id="Layer_1" xmlns="http://www.w3.org/2000/svg" xmlns:xlink="http://www.w3.org/1999/xlink" x="0px" y="0px"
	 viewBox="0 0 141.7 141.7" style="enable-background:new 0 0 141.7 141.7;" xml:space="preserve">
<style type="text/css">
	.st0{fill-rule:evenodd;clip-rule:evenodd;fill:#F2F2F2;}
	.st1{fill:#10067F;}
	.st2{fill:#33B5F4;}
	.st3{fill:#FDC82F;}
	.st4{fill-rule:evenodd;clip-rule:evenodd;fill:#2B3A55;}
	.st5{fill-rule:evenodd;clip-rule:evenodd;fill:#FFFFFF;filter:url(#Adobe_OpacityMaskFilter);}
	.st6{mask:url(#path-6-inside-1_1_);fill:#2B3A55;}
</style>
<path class="st0" d="M70.9,136.9c36.5,0,66-29.5,66-66c0-36.5-29.5-66-66-66c-36.5,0-66,29.5-66,66C4.9,107.3,34.4,136.9,70.9,136.9
	z"/>
<path class="st1" d="M70.9,22.5c-10.3,0-26.4,6.6-20.7,29.4c-0.7,2.8,0,3.6,0,3.6s0,14.3,17,22.7c14.2,7,2.7,21.5,3.7,19.1
	c1,2.4-16.4-9.8-2.2-16.9c19.8-3.7,22-24.9,22-24.9s-0.1-0.8-0.7-3.6C97.3,29.8,81.1,22.5,70.9,22.5z"/>
<path class="st2" d="M54,55.5c0-10.3,8.8-15.4,10.3-21.3c5.9,9.5,16.9,7.3,24.2,13.9c0,11.7-5.9,25.7-17.6,25.7
	C60.6,73.8,54,62.8,54,55.5z"/>
<path class="st3" d="M123.5,110.7c-12.1,15.9-31.2,26.2-52.7,26.2s-40.6-10.3-52.7-26.2c3.9-18.2,16.3-31,52.7-31
	S119.7,92.5,123.5,110.7z"/>
<path class="st2" d="M60.6,69.4h20.5V83c0,0-1.3,2.5-10.3,2.5c-9,0-10.3-2.5-10.3-2.5V69.4z"/>
<path class="st4" d="M51.5,27.4c-3.2,4.1-5,9.5-5,15.6h3.9v14.7h-4.3c-3.3,0-6-2.7-6-6V49c0-2,1-3.7,2.4-4.8
	c-0.2-7.3,1.8-14.1,5.8-19.3c5-6.4,12.9-10.3,22.9-10.3c10,0,17.8,3.9,22.6,10.3c4.1,5.6,6,12.8,5.4,20.7c0.7,1,1,2.1,1,3.4v2.7
	c0,3.3-2.7,6-6,6h-3.3c-0.4,0.4-0.8,0.8-1.3,1.2c-3.1,2.7-7.4,5.5-13.1,6.8c-0.6,2.1-2.6,3.7-4.9,3.7c-2.8,0-5.1-2.3-5.1-5.1
	c0-2.8,2.3-5.1,5.1-5.1c2.3,0,4.2,1.5,4.9,3.5c4.8-1.3,8.5-3.7,11.2-6c0.9-0.8,1.6-1.5,2.3-2.2V43h4.3c0.4,0,0.7,0,1.1,0.1
	c0.1-6.2-1.6-11.6-4.7-15.8c-4-5.3-10.4-8.7-19.4-8.7C62.3,18.6,55.6,22,51.5,27.4z"/>
<defs>
	<filter id="Adobe_OpacityMaskFilter" filterUnits="userSpaceOnUse" x="39.1" y="13.6" width="62.1" height="56.8">
		<feColorMatrix  type="matrix" values="1 0 0 0 0  0 1 0 0 0  0 0 1 0 0  0 0 0 1 0"/>
	</filter>
</defs>
<mask maskUnits="userSpaceOnUse" x="39.1" y="13.6" width="62.1" height="56.8" id="path-6-inside-1_1_">
	<path class="st5" d="M51.5,27.4c-3.2,4.1-5,9.5-5,15.6h3.9v14.7h-4.3c-3.3,0-6-2.7-6-6V49c0-2,1-3.7,2.4-4.8
		c-0.2-7.3,1.8-14.1,5.8-19.3c5-6.4,12.9-10.3,22.9-10.3c10,0,17.8,3.9,22.6,10.3c4.1,5.6,6,12.8,5.4,20.7c0.7,1,1,2.1,1,3.4v2.7
		c0,3.3-2.7,6-6,6h-3.3c-0.4,0.4-0.8,0.8-1.3,1.2c-3.1,2.7-7.4,5.5-13.1,6.8c-0.6,2.1-2.6,3.7-4.9,3.7c-2.8,0-5.1-2.3-5.1-5.1
		c0-2.8,2.3-5.1,5.1-5.1c2.3,0,4.2,1.5,4.9,3.5c4.8-1.3,8.5-3.7,11.2-6c0.9-0.8,1.6-1.5,2.3-2.2V43h4.3c0.4,0,0.7,0,1.1,0.1
		c0.1-6.2-1.6-11.6-4.7-15.8c-4-5.3-10.4-8.7-19.4-8.7C62.3,18.6,55.6,22,51.5,27.4z"/>
</mask>
<path class="st6" d="M46.5,43l-1,0l0,1h1V43z M51.5,27.4l0.8,0.6l0,0L51.5,27.4z M50.3,43h1v-1h-1V43z M50.3,57.7v1h1v-1H50.3z
	 M42.5,44.2l0.6,0.8l0.4-0.3l0-0.5L42.5,44.2z M48.3,24.9l0.8,0.6l0,0L48.3,24.9z M93.8,24.9l0.8-0.6l0,0L93.8,24.9z M99.2,45.6
	l-1-0.1l0,0.4l0.2,0.3L99.2,45.6z M90.9,57.7v-1h-0.4L90.2,57L90.9,57.7z M89.6,58.9l0.7,0.8l0,0L89.6,58.9z M76.5,65.7l-0.2-1
	l-0.6,0.1l-0.2,0.6L76.5,65.7z M76.5,62.7L75.5,63l0.3,0.9l0.9-0.2L76.5,62.7z M87.7,56.6L87,55.9l0,0L87.7,56.6z M89.9,54.4
	l0.7,0.7l0.3-0.3v-0.4H89.9z M89.9,43v-1h-1v1H89.9z M95.3,43.1l-0.2,1l1.2,0.2l0-1.2L95.3,43.1z M90.6,27.3l-0.8,0.6l0,0L90.6,27.3
	z M47.5,43c0-5.9,1.7-11.1,4.8-15l-1.6-1.2c-3.4,4.3-5.2,10-5.2,16.3L47.5,43z M50.3,42h-3.9v2h3.9V42z M51.3,57.7V43h-2v14.7H51.3z
	 M46.1,58.7h4.3v-2h-4.3V58.7z M39.1,51.7c0,3.9,3.1,7,7,7v-2c-2.8,0-5-2.2-5-5H39.1z M39.1,49v2.7h2V49H39.1z M41.9,43.4
	c-1.7,1.3-2.8,3.3-2.8,5.6h2c0-1.6,0.8-3.1,2-4L41.9,43.4z M47.5,24.3c-4.2,5.4-6.3,12.4-6,19.9l2-0.1c-0.2-7.1,1.7-13.6,5.6-18.6
	L47.5,24.3z M71.2,13.6c-10.3,0-18.5,4-23.7,10.7l1.6,1.2c4.8-6.1,12.4-9.9,22.1-9.9V13.6z M94.6,24.3c-5-6.7-13.1-10.7-23.4-10.7v2
	c9.8,0,17.2,3.8,21.8,9.9L94.6,24.3z M100.2,45.7c0.6-8.1-1.2-15.6-5.6-21.4L93,25.5c4,5.3,5.8,12.3,5.2,20L100.2,45.7z M101.2,49
	c0-1.5-0.5-2.8-1.2-4l-1.7,1.1c0.5,0.8,0.9,1.8,0.9,2.8H101.2z M101.2,51.7V49h-2v2.7H101.2z M94.2,58.7c3.9,0,7-3.1,7-7h-2
	c0,2.8-2.2,5-5,5V58.7z M90.9,58.7h3.3v-2h-3.3V58.7z M90.3,59.6c0.5-0.4,0.9-0.8,1.3-1.3L90.2,57c-0.4,0.4-0.8,0.8-1.3,1.2
	L90.3,59.6z M76.7,66.7c5.9-1.4,10.4-4.3,13.6-7.1L89,58.1c-3,2.6-7.2,5.3-12.7,6.6L76.7,66.7z M71.6,70.4c2.8,0,5.1-1.9,5.9-4.4
	l-1.9-0.6c-0.5,1.7-2.1,3-4,3V70.4z M65.5,64.3c0,3.4,2.7,6.1,6.1,6.1v-2c-2.3,0-4.1-1.9-4.1-4.1H65.5z M71.6,58.1
	c-3.4,0-6.1,2.7-6.1,6.1h2c0-2.3,1.9-4.1,4.1-4.1V58.1z M77.4,62.3c-0.8-2.4-3.1-4.2-5.8-4.2v2c1.8,0,3.4,1.2,3.9,2.8L77.4,62.3z
	 M87,55.9c-2.6,2.3-6.2,4.6-10.8,5.8l0.5,1.9c5-1.3,8.8-3.8,11.6-6.2L87,55.9z M89.2,53.7c-0.6,0.7-1.4,1.4-2.2,2.2l1.3,1.5
	c0.9-0.8,1.7-1.6,2.4-2.3L89.2,53.7z M88.9,43v11.4h2V43H88.9z M94.2,42h-4.3v2h4.3V42z M95.4,42.1C95,42,94.6,42,94.2,42v2
	c0.3,0,0.6,0,0.9,0.1L95.4,42.1z M89.8,27.9c2.9,4,4.6,9.2,4.5,15.2l2,0c0.1-6.3-1.6-12-4.9-16.4L89.8,27.9z M71.2,19.6
	c8.7,0,14.8,3.3,18.6,8.3l1.6-1.2c-4.2-5.6-11-9.1-20.2-9.1V19.6z M52.3,28c3.9-5.1,10.3-8.4,19-8.4v-2c-9.2,0-16.2,3.6-20.5,9.1
	L52.3,28z"/>
</svg>
