<svg width="286" height="232" viewBox="0 0 286 232" fill="none" xmlns="http://www.w3.org/2000/svg">
<path d="M264.958 84.8368C248.237 24.9916 182.336 21.3568 90.1138 45.3566C-17.9457 73.4779 15.4482 145.193 134.22 179.759C197.544 198.188 286.886 163.316 264.958 84.8368Z" fill="#ECEFFA"/>
<path d="M258.961 56.2471L172.641 39.7693L149.885 158.979C150.673 158.354 151.708 158.062 152.761 158.263C154.065 158.512 155.065 159.454 155.469 160.647L157.292 160.995C158.106 160.035 159.383 159.527 160.687 159.776C161.992 160.025 162.992 160.967 163.396 162.16L165.219 162.509C166.034 161.548 167.311 161.041 168.615 161.29C169.919 161.539 170.919 162.481 171.323 163.674L173.146 164.022C173.961 163.061 175.238 162.554 176.542 162.803C177.846 163.052 178.847 163.994 179.25 165.187L181.074 165.535C181.889 164.575 183.165 164.068 184.469 164.317C185.773 164.565 186.774 165.507 187.177 166.7L189.001 167.048C189.815 166.088 191.092 165.58 192.397 165.829C193.701 166.078 194.701 167.02 195.105 168.213L196.929 168.562C197.744 167.601 199.02 167.094 200.325 167.343C201.629 167.592 202.629 168.534 203.033 169.727L204.856 170.075C205.671 169.114 206.948 168.607 208.252 168.856C209.557 169.105 210.557 170.047 210.961 171.24L212.783 171.588C213.598 170.628 214.875 170.121 216.179 170.37C217.483 170.618 218.483 171.56 218.887 172.753L220.71 173.101C221.525 172.141 222.802 171.633 224.106 171.882C225.411 172.131 226.411 173.073 226.815 174.267L228.638 174.615C229.453 173.654 230.73 173.147 232.034 173.396C233.338 173.645 234.338 174.587 234.742 175.78L236.094 176.038L258.961 56.2471Z" fill="#B9CFED"/>
<path d="M257.185 52.4779L170.866 36.0001L148.109 155.21C148.898 154.585 149.933 154.293 150.985 154.494C152.289 154.743 153.29 155.685 153.693 156.878L155.516 157.226C156.331 156.265 157.608 155.758 158.912 156.007C160.216 156.256 161.217 157.198 161.62 158.391L163.444 158.739C164.259 157.779 165.535 157.272 166.839 157.521C168.143 157.77 169.144 158.712 169.547 159.904L171.371 160.253C172.185 159.292 173.462 158.785 174.767 159.034C176.071 159.283 177.071 160.225 177.475 161.418L179.298 161.766C180.113 160.806 181.39 160.298 182.694 160.547C183.998 160.796 184.998 161.738 185.402 162.931L187.225 163.279C188.04 162.318 189.317 161.811 190.621 162.06C191.925 162.309 192.926 163.251 193.329 164.444L195.153 164.793C195.968 163.832 197.245 163.325 198.549 163.574C199.853 163.823 200.853 164.765 201.257 165.958L203.081 166.306C203.896 165.345 205.173 164.838 206.477 165.087C207.781 165.336 208.782 166.278 209.185 167.471L211.008 167.819C211.823 166.859 213.1 166.351 214.404 166.6C215.708 166.849 216.708 167.791 217.112 168.984L218.935 169.332C219.75 168.371 221.027 167.864 222.331 168.113C223.635 168.362 224.636 169.304 225.039 170.497L226.863 170.846C227.677 169.885 228.954 169.378 230.258 169.627C231.562 169.876 232.563 170.818 232.966 172.011L234.318 172.269L257.185 52.4779Z" fill="white"/>
<rect x="205.193" y="65.188" width="39.4557" height="3.58688" transform="rotate(10.8073 205.193 65.188)" fill="#A9C0DA"/>
<rect x="167.471" y="95.4169" width="70.8409" height="1.79344" transform="rotate(10.8073 167.471 95.4169)" fill="#A9C0DA"/>
<rect x="164.781" y="109.51" width="70.8409" height="1.79344" transform="rotate(10.8073 164.781 109.51)" fill="#A9C0DA"/>
<rect x="198.674" y="141.939" width="32.2819" height="1.79344" transform="rotate(10.8073 198.674 141.939)" fill="#A9C0DA"/>
<rect x="168.816" y="88.3699" width="70.8409" height="1.79344" transform="rotate(10.8073 168.816 88.3699)" fill="#A9C0DA"/>
<rect x="166.127" y="102.463" width="70.8409" height="1.79344" transform="rotate(10.8073 166.127 102.463)" fill="#A9C0DA"/>
<rect x="163.436" y="116.556" width="70.8409" height="1.79344" transform="rotate(10.8073 163.436 116.556)" fill="#A9C0DA"/>
<path d="M184.4 78.8473C172.644 71.5076 176.758 49.9531 176.758 49.9531C182.048 50.9628 187.799 50.0134 190.175 48.595L190.175 48.5961C191.862 50.7899 196.859 53.7911 202.148 54.8008C202.148 54.8008 198.034 76.3547 184.4 78.8473Z" fill="#33B5F4"/>
<path fill-rule="evenodd" clip-rule="evenodd" d="M186.533 55.7959L191.349 56.7152L190.429 61.531L195.245 62.4502L194.326 67.2656L189.51 66.3464L188.591 71.1615L183.775 70.2422L184.695 65.4272L179.879 64.5079L180.798 59.6925L185.614 60.6117L186.533 55.7959Z" fill="white"/>
<path d="M26.485 144.201C28.2464 117.731 59.4739 111.564 67.7929 109.929L91.4991 106.319C137.887 110.442 129.866 157.054 131.543 185.554L85.8134 182.062C74.3702 180.615 24.7236 170.671 26.485 144.201Z" fill="white"/>
<path d="M78.539 90.7215C61.8228 88.3444 65.0315 80.5223 64.1236 73.6282C63.6053 88.1236 61.6741 103.008 67.5564 111.42C82.9266 133.398 98.793 157.919 98.793 157.919C98.793 157.919 98.814 131.178 93.2434 107.508L93.1965 86.2917C87.3407 90.3481 80.9849 90.935 78.539 90.7215Z" fill="#33B5F5"/>
<path d="M102.7 75.0156C103.796 46.9978 89.6937 53.0214 63.9285 54.486C57.067 86.4301 69.453 103.949 90.78 100.633L90.8332 100.624C95.9669 99.8265 101.765 98.9254 102.7 75.0156Z" fill="#33B5F5"/>
<path d="M94.1001 98.9376C89.1654 99.9852 83.5285 99.4585 79.5117 96.448C83.8147 102.081 87.9531 103.967 90.1884 103.967C92.4236 103.967 94.9347 102.865 94.1001 98.9376Z" fill="#0080F6"/>
<path d="M101.35 72.7405C102.065 76.3102 103.928 81.6463 104.092 84.0793C104.158 85.0565 99.1967 86.2435 99.1967 86.2435L98.6681 88.0943L97.2407 84.927C97.2407 84.927 100.635 69.1708 101.35 72.7405Z" fill="#33B5F5"/>
<path d="M75.1534 58.1394L76.7763 65.4032C76.7763 65.4032 94.644 58.4444 102.12 64.2907C102.12 64.2907 102.42 73.8664 102.12 79.3788C101.486 91.0037 99.6573 97.1753 92.7548 99.2447L92.7548 106.202L108.907 117.178C111.324 112.737 113.486 63.1441 102.12 50.8902C92.7031 40.7378 73.6834 34.9441 57.8178 52.6339C45.1253 66.7857 59.7264 101.393 51.0707 113.466L73.6728 123.15C76.7763 110.672 72.6532 64.2902 75.1534 58.1394Z" fill="#10067F"/>
<rect width="3.73799" height="16.6544" transform="matrix(-0.983395 0.181479 0.110813 0.993841 110.891 133.426)" fill="#00B097"/>
<rect width="4.75841" height="13.083" transform="matrix(-0.110813 -0.993841 -0.983395 0.181479 116.672 143.219)" fill="#00B097"/>
<path d="M164.51 151.466C158.941 154.25 158.318 157.196 158.318 157.196L151.586 149.211C151.586 149.211 153.748 146.436 156.043 143.131C159.485 138.17 158.781 134.156 160.959 133.087C163.137 132.018 160.87 138.962 160.87 138.962C160.87 138.962 163.012 137.021 163.677 136.009C165.088 134.352 164.825 134.356 165.972 132.703C166.546 132.008 167.778 130.134 168.642 130.794C170.098 131.907 165.444 136.602 166.345 137.376C167.245 138.15 172.3 130.03 173.582 131.429C175.128 132.703 168.508 138.643 169.409 139.417C169.54 139.73 171.825 138.482 172.977 136.845C174.57 135.117 175.42 134.278 176.23 135.369C176.804 136.144 170.88 141.741 171.216 142.524C171.507 143.467 175.638 139.647 176.23 140.848C177.039 141.939 167.863 149.789 164.51 151.466Z" fill="#33B5F4"/>
<path d="M152.775 145.878C127.628 163.201 90.3939 179.664 90.3939 179.664C90.3939 179.664 28.7648 94.43 25.9234 146.995C24.8058 167.671 65.5995 210.141 82.3641 211.818C99.1286 213.494 128.291 199.722 162.275 155.936L152.775 145.878Z" fill="white"/>
<path d="M84.5992 212.377C102.548 213.571 127.069 192.818 127.069 192.818C127.069 192.818 101.715 208.709 84.5992 207.906C72.8305 207.354 51.6289 191.142 51.6289 191.142C51.6289 191.142 71.4993 211.505 84.5992 212.377Z" fill="#ECEFFA"/>
<path d="M89.7003 174.936C95.2177 176.909 118.688 165.436 118.688 165.436C118.688 165.436 100.907 173.561 89.7003 168.631C81.9947 165.241 73.4238 154.819 73.4238 154.819C73.4238 154.819 84.1829 172.963 89.7003 174.936Z" fill="#ECEFFA"/>
</svg>
