<?xml version="1.0" encoding="utf-8"?>
<!-- Generator: Adobe Illustrator 24.1.0, SVG Export Plug-In . SVG Version: 6.00 Build 0)  -->
<svg version="1.1" id="Layer_1" xmlns="http://www.w3.org/2000/svg" xmlns:xlink="http://www.w3.org/1999/xlink" x="0px" y="0px"
	 viewBox="0 0 141.7 141.7" style="enable-background:new 0 0 141.7 141.7;" xml:space="preserve">
<style type="text/css">
	.st0{fill:#DBB83D;}
	.st1{fill:#FDEFC6;}
	.st2{fill:#F8CF5F;}
	.st3{fill-rule:evenodd;clip-rule:evenodd;fill:#DBB83D;}
	.st4{fill-rule:evenodd;clip-rule:evenodd;fill:#9FCF6F;}
	.st5{fill-rule:evenodd;clip-rule:evenodd;fill:#00B097;}
	.st6{fill:#DB7015;}
	.st7{fill:#FF7F3F;}
	.st8{fill-rule:evenodd;clip-rule:evenodd;fill:#FFFFFF;}
</style>
<path class="st0" d="M136.9,74.2c0,34.6-29.5,62.7-66,62.7c-36.5,0-66-28.1-66-62.7c0-34.6,29.5-62.7,66-62.7
	C107.3,11.5,136.9,39.5,136.9,74.2z"/>
<path class="st1" d="M136.9,65.9c0,33.7-29.5,61-66,61c-36.5,0-66-27.3-66-61s29.5-61.1,66-61.1C107.3,4.9,136.9,32.2,136.9,65.9z"
	/>
<path class="st2" d="M104.3,28.9c-4-8.9-12.3-12.8-18.7-8.8c-6.3,4.1-8.3,14.6-4.3,23.5c4,8.9,12.3,12.8,18.7,8.8
	C106.3,48.3,108.2,37.8,104.3,28.9z"/>
<path class="st3" d="M96.1,45.6c7.7-4.2,9.5-14.4,3.9-22.8c-0.2-0.3-0.3-0.5-0.5-0.8c1.8,1.4,3.4,3.1,4.7,5.1
	c5.8,8.7,3.8,19.4-4.5,23.9c-8.3,4.5-19.7,1-25.5-7.7c-1.3-1.9-2.2-4-2.7-6c0.1,0.2,0.3,0.5,0.5,0.7C77.5,46.4,88.3,49.8,96.1,45.6z
	"/>
<path class="st2" d="M117.6,58.3c5.6-7.4,3.7-16.4-4.1-20c-7.8-3.6-18.7-0.5-24.3,6.9c-5.6,7.4-3.7,16.4,4.1,20
	C101.2,68.8,112.1,65.7,117.6,58.3z"/>
<path class="st2" d="M95,45.3c2.1,9.9-2.7,18.5-10.8,19c-8.1,0.6-16.4-7-18.5-17c-2.1-9.9,2.7-18.5,10.8-19
	C84.6,27.7,92.9,35.3,95,45.3z"/>
<path class="st3" d="M83,60.7c8.6-0.6,14-8.9,11.9-18.4c-0.6-3-1.9-5.7-3.6-8.1c3.5,3,6.2,7.3,7.2,12.2c2.1,9.9-3.4,18.5-12.3,19.1
	C78.7,66,71.1,60.7,67.7,53C71.5,58,77.3,61.1,83,60.7z"/>
<path class="st3" d="M90.6,63.8c1.5,0.9,3.3,1.7,5.2,2.2c9.9,2.7,20.9-1.7,24.6-9.9c2.8-6.3,0.5-12.9-5.1-16.9
	c2.7,3.7,3.3,8.3,1.3,12.8c-3.4,7.6-13.4,11.9-22.7,9.9C92.8,62.7,91.8,63.3,90.6,63.8z"/>
<path class="st4" d="M54.7,41.6c0.3-0.2,0.6-0.5,0.8-0.8c4.7-4.7,4.8-12.2,0.1-16.8s-12.2-4.5-16.9,0.2c-2.9,2.9-4.1,7-3.4,10.7
	c-4.1,0-8.3,1.7-11.4,5c-6,6.3-5.9,16.2,0.3,22.2c-3.3,1.3-6,3.9-7.5,7.4c-3,7,0.2,15,7.1,17.9c2.7,1.1,5.5,1.4,8.2,0.8
	c0.7,0.6,1.5,1.2,2.3,1.7C30.6,95.5,31,103.1,36,108c5.5,5.5,14.5,5.3,20.1-0.3c5.6-5.6,5.7-14.5,0.3-20c0.3-0.3,0.6-0.5,0.9-0.8
	c7.3-7.3,7.4-18.9,0.2-26c-0.9-0.9-1.8-1.6-2.8-2.3C58.6,53.6,58.6,46.5,54.7,41.6z"/>
<path class="st5" d="M33.2,103.6c3.5,3.3,8.5,4.8,13.6,3.6c7.8-1.9,12.6-9.6,10.7-17.2c0-0.1-0.1-0.3-0.1-0.4
	c1.3,1.5,2.3,3.4,2.8,5.5c1.8,7.4-2.8,15-10.4,16.8C42.8,113.6,35.8,109.9,33.2,103.6z"/>
<path class="st5" d="M38.8,79.9c-2,2.3-4.8,3.9-8,4.4c-6.5,1.1-12.6-2.4-15-8.1c0,0.3,0.1,0.6,0.1,0.9c1.3,7.7,8.7,12.8,16.6,11.5
	c4.2-0.7,7.8-3.2,9.9-6.5C41.1,81.5,39.8,80.8,38.8,79.9z"/>
<path class="st5" d="M33.8,56.5c3.6,3.1,8.8,4,13.4,2.1c6.5-2.6,9.5-9.8,6.7-16.1c-0.4-1-1-1.8-1.6-2.6c2.2,1.3,4,3.3,5.1,5.8
	c2.8,6.4-0.3,13.9-6.9,16.6C44.2,64.9,37,62.3,33.8,56.5z"/>
<path class="st5" d="M39.1,35.1c-0.1-0.9-0.1-1.8,0-2.8c0.6-6,5.4-10.7,11.2-11.3c-0.6-0.2-1.3-0.3-2-0.3
	c-6.6-0.5-12.4,4.3-13.1,10.8c-0.1,1.2-0.1,2.3,0.1,3.4c0.7-0.1,1.4-0.1,2.1-0.1C38,34.9,38.5,35,39.1,35.1z"/>
<path class="st6" d="M97.6,109.8c8.1-4.1,17.9-11.6,22.3-22.9c1.7-4.4,3.4-12.2,0.8-14c-0.5,3.4-11.8,0.9-32.3,8.2
	c-20.6,7.3-21.4,8.9-19,23.5c2.5,8.8,3.2,8.9,3.2,8.9S88.8,114.3,97.6,109.8z"/>
<path class="st7" d="M93.3,99.6c15.1-7,23.3-18,23.3-18s5.6-8.4,4-8.7c0,0-5.3-2.8-24.9,4.3C69.6,84.4,67.9,88,68.1,93.6
	c0.2,5.6,4,14.2,4,14.2S78.2,106.6,93.3,99.6z"/>
<path class="st8" d="M89.5,79.2l-0.1,0.3c4.2,1.4,10.5,4.5,15.2,8.9c3.5,3.2,6.1,7.1,6.7,11.5c1-1,2-2.1,2.8-3.1
	c-1.3-4.3-4-7.9-7.2-10.9c-3.9-3.6-8.6-6.4-12.7-8.2c-1.1,0.3-2.3,0.7-3.5,1C90.3,78.9,89.9,79.1,89.5,79.2z"/>
<path class="st8" d="M100.4,75.9c3.6,0.5,7.6,1.5,11.2,3.2c3.9,1.8,7,4.3,8.5,7.7c0.6-1.7,1-3.2,1.1-4.7c-2.1-2.6-5.1-4.6-8.2-6.1
	c-1.8-0.9-3.8-1.6-5.7-2.1C105.3,74.3,103.1,75,100.4,75.9z"/>
<path class="st8" d="M77.9,113.6c2.2-1.6,3.9-3.1,5.2-4.7c2.8-3.4,3.4-6.9,2.4-10.1c-1-3.1-3.5-5.6-6.3-7.7
	c-2.5-1.8-5.4-3.3-8.1-4.4c-1.1,0.9-1.7,1.9-2.1,2.9c2.8,1,5.8,2.5,8.2,4.3c2.5,1.8,4.3,3.8,5,5.9c0.6,1.9,0.4,4.2-1.8,6.8
	c-1.6,1.9-4.1,4-7.9,6.1c0,0.1,0,0.1,0,0.1S74.5,113.5,77.9,113.6z"/>
<path class="st8" d="M99.1,109c1.5-5,0.9-9.5-1-13.5c-3-6.3-9.3-11.1-15.1-14.2c-1.7,0.6-3.2,1.1-4.5,1.6
	c6.2,2.7,13.4,7.5,16.4,13.9c1.6,3.3,2.1,7,0.8,11.2c-0.3,0.9-0.6,1.8-1.1,2.7C96,110.2,97.5,109.6,99.1,109z"/>
</svg>
