<?xml version="1.0" encoding="utf-8"?>
<!-- Generator: Adobe Illustrator 24.1.0, SVG Export Plug-In . SVG Version: 6.00 Build 0)  -->
<svg version="1.1" id="Layer_1" xmlns="http://www.w3.org/2000/svg" xmlns:xlink="http://www.w3.org/1999/xlink" x="0px" y="0px"
	 viewBox="0 0 141.7 141.7" style="enable-background:new 0 0 141.7 141.7;" xml:space="preserve">
<style type="text/css">
	.st0{fill:#33B5F4;}
</style>
<path class="st0" d="M67.6,73.6c-0.7,0.4-32.6,3-49.2,3.4v31.8c6.4-0.7,19.9-2.2,22-2.4c2.7-0.3,20.2-2.1,24.2-2.6
	c3.9-0.5,6-0.5,7.2-0.3c1.2,0.3,3.8,1.2,6.3,1.9c4.5,1.2,7.1,1.8,11.8,2.4c6.8,1,16.9,1.1,16.9,1.1s2.3,0.1,5.1-0.5
	c4.8-1.1,6.9-4.6,6.3-8.6c3.3-3,4.8-7.8,1.8-10.8c3.6-2.4,4.5-10.3,0.9-12.7c0-1.3,1.5-2.2,0.6-6.5c-0.9-4.3-4.5-5.1-10.3-6.2
	c-4.6-0.9-8.8-0.4-10.6-0.5c0-2.2,1.8-6.3,4.8-10c3.6-4.5,4.7-9.1,4.5-13.7c-0.3-7-4.2-7.3-6.3-6.8c-2.1,0.5-2.4,4.3-3,5.9
	s-2.4,4-3.9,5.9s-3.2,5.8-7.9,9.5c-4.8,3.8-7.2,7.5-9.7,9.9C77,66.3,68.5,73.1,67.6,73.6z"/>
</svg>
