<?xml version="1.0" encoding="utf-8"?>
<!-- Generator: Adobe Illustrator 24.1.0, SVG Export Plug-In . SVG Version: 6.00 Build 0)  -->
<svg version="1.1" id="Layer_1" xmlns="http://www.w3.org/2000/svg" xmlns:xlink="http://www.w3.org/1999/xlink" x="0px" y="0px"
	 viewBox="0 0 141.7 141.7" style="enable-background:new 0 0 141.7 141.7;" xml:space="preserve">
<style type="text/css">
	.st0{fill-rule:evenodd;clip-rule:evenodd;fill:#BD7E35;}
	.st1{fill-rule:evenodd;clip-rule:evenodd;fill:#FDC82F;}
	.st2{fill-rule:evenodd;clip-rule:evenodd;fill:#EBB61F;}
	.st3{fill:#755908;}
	.st4{fill:#FDC82F;}
</style>
<path class="st0" d="M50.5,64.9V49.6c4.1,0.3,8.7,0.4,13.8,0.4c33.2,0,41.5-8.7,41.5-13.6l0,0c-0.9-8.6-20.8-16.5-39-16.5
	c-0.1,0-0.3,0-0.4,0c-0.1,0-0.2,0-0.3,0C36.9,19.9,22,29.9,18,40.1c-0.5,1.5-1.1,2.8-1.1,4.6c0,0,0,0.6,0,0.9c0,1.3,0.2,2.7,0.6,4
	c0.1,0.4,0.3,0.7,0.4,1h-0.1c2.4,6.5,9.2,12.2,18.7,16.3C40.9,65.9,45.6,65.2,50.5,64.9z M105.9,66.7L105.9,66.7l0-0.2
	C105.9,66.6,105.9,66.7,105.9,66.7z M105.9,37L105.9,37L105.9,37L105.9,37z"/>
<path class="st1" d="M50.9,80c26.7,1.4,55,2,55-6.3V36.9c0,4.9-8.2,13.5-41.2,13.5c-5.1,0-9.7-0.1-13.8-0.4V80z"/>
<path class="st2" d="M102.6,41.5c-4.9,4.1-16.1,8.1-38.7,8.1c-3.9,0-7.4-0.1-10.7-0.2c-1.1-0.1-2.2-0.1-3.3-0.2V80
	c27.2,1.4,56,2,56-6.4V35.9C105.9,37.5,105,39.5,102.6,41.5z M105.9,41.5c-1.3,2.9-5.7,5.4-7,6c-6.9,3.1-17.9,5.3-35,5.3
	c-3.9,0-7.4-0.1-10.7-0.2v24.3c12.6,0.6,25.1,1,34.7,0.3c5.2-0.4,9.3-1,12-2c1.3-0.5,2.1-0.9,2.5-1.3c0.3-0.3,0.3-0.4,0.3-0.4l3.3,0
	V41.5z"/>
<path class="st3" d="M89.9,62.1l5-1.2v25h-5V62.1z"/>
<path class="st1" d="M86.9,59.5l11-2.7v32h-11V59.5z M94.8,85.7h-4.9V62.1l4.9-1.2V85.7z"/>
<path class="st3" d="M69.9,68.9h6v17h-6V68.9z"/>
<path class="st1" d="M65.9,65.9h13v23h-13V65.9z M69.2,69.1v16.6h6.2V69.1H69.2z"/>
<path class="st1" d="M16.9,44.9L16.9,44.9c0,0.2,0,0.4,0,0.6V44.9z M69.7,73.3c-29.2,0-52.8-12.5-52.8-27.8V94v1.8H17
	c1.7,14.5,24.7,26.1,52.7,26.1h55.2V73.3h-20H69.7L69.7,73.3z"/>
<path class="st2" d="M70.2,75.9c-15.1,0-29-3.2-39.2-8.6c-4.2-2.2-14.1-8.8-14.1-16.2v36.5c0,10.7,9.1,19.1,18.2,23.7
	c9,4.5,21.3,7.3,35.1,7.3h52.4V75.9H70.2z M125.9,72.7v49.2H70.2c-28.3,0-51.4-11.7-53.2-26.4h-0.1v-51c0,3.4,1.2,6.7,3.3,9.8
	c7.5,10.8,27.1,18.4,50,18.4H125.9z M16.9,44.5C16.9,43.8,16.9,43.8,16.9,44.5L16.9,44.5z"/>
<path class="st3" d="M32.6,113.9c-2.2-1.1-4.2-2.4-6-3.7V93.3l6,3.5V113.9z"/>
<path class="st3" d="M51.7,120.2c-2.1-0.4-4-0.8-6-1.4V89.8l6,1.2V120.2z"/>
<path class="st3" d="M86.3,94.5h6v27.2h-6V94.5z"/>
<path class="st3" d="M106.6,105.1h6v16.5h-6V105.1z"/>
<path class="st3" d="M72,105.1h-6v16.5h6V105.1z"/>
<path class="st4" d="M35.8,115.4V95l-12.4-7.4v19.8c1,0.9,2.1,1.8,3.2,2.7V93.3l6,3.5v17C33.6,114.4,34.7,114.9,35.8,115.4z"/>
<path class="st4" d="M54.9,120.8V88.3l-12.4-2.5v32c1.1,0.3,2.1,0.6,3.2,0.9V89.8l6,1.2v29.3C52.8,120.4,53.8,120.6,54.9,120.8z"/>
<path class="st1" d="M75.2,121.9h-5.5c-2.3,0-4.6-0.1-6.9-0.2v-19.7h12.4V121.9z M66,121.7v-16.5h6v16.5H66z"/>
<path class="st1" d="M95.5,121.9H83.1V91.3h12.4V121.9z M86.3,94.5v27.2h6V94.5H86.3z"/>
<path class="st1" d="M115.8,121.9h-12.4v-19.9h12.4V121.9z M106.6,121.7v-16.5h6v16.5H106.6z"/>
</svg>
