<?xml version="1.0" encoding="utf-8"?>
<!-- Generator: Adobe Illustrator 24.1.0, SVG Export Plug-In . SVG Version: 6.00 Build 0)  -->
<svg version="1.1" id="Layer_1" xmlns="http://www.w3.org/2000/svg" xmlns:xlink="http://www.w3.org/1999/xlink" x="0px" y="0px"
	 viewBox="0 0 141.7 141.7" style="enable-background:new 0 0 141.7 141.7;" xml:space="preserve">
<style type="text/css">
	.st0{fill-rule:evenodd;clip-rule:evenodd;fill:#F2F2F2;}
	.st1{fill:#FFFFFF;filter:url(#Adobe_OpacityMaskFilter);}
	.st2{mask:url(#mask0_1_);}
	.st3{fill:#FDC82F;}
	.st4{fill:#33B5F5;}
	.st5{fill:#10067F;}
	.st6{fill:#FFFFFF;filter:url(#Adobe_OpacityMaskFilter_1_);}
	.st7{mask:url(#mask1_1_);}
	.st8{fill:#FFFFFF;filter:url(#Adobe_OpacityMaskFilter_2_);}
	.st9{mask:url(#mask2_1_);}
	.st10{fill-rule:evenodd;clip-rule:evenodd;fill:#52CAB8;}
	.st11{fill:#FFFFFF;filter:url(#Adobe_OpacityMaskFilter_3_);}
	.st12{mask:url(#mask3_1_);}
</style>
<path class="st0" d="M124.1,108.9c8.6,0,15.6-7,15.6-15.6s-7-15.6-15.6-15.6s-15.6,7-15.6,15.6S115.4,108.9,124.1,108.9z"/>
<defs>
	<filter id="Adobe_OpacityMaskFilter" filterUnits="userSpaceOnUse" x="110.2" y="97.1" width="28.1" height="22.2">
		<feColorMatrix  type="matrix" values="1 0 0 0 0  0 1 0 0 0  0 0 1 0 0  0 0 0 1 0"/>
	</filter>
</defs>
<mask maskUnits="userSpaceOnUse" x="110.2" y="97.1" width="28.1" height="22.2" id="mask0_1_">
	<path class="st1" d="M124.1,108.9c8.6,0,15.6-7,15.6-15.6s-7-15.6-15.6-15.6s-15.6,7-15.6,15.6S115.4,108.9,124.1,108.9z"/>
</mask>
<g class="st2">
	<path class="st3" d="M137,119.3c0,0,6.2-20.4-8.8-21.9c-13.8-1.4-19,2.5-17.9,12.2c1,9.7,0.7,9.7,0.7,9.7H137z"/>
</g>
<path class="st4" d="M121.2,97.6l0.1-10.3c0,0,7.6-2.3,7.9-1.3c1.6,4.1,1.4,8.9-0.7,9.4c-1.2,0.2-1.5,0.2-1.9,0.1l-0.1,2.4
	c0,0-0.2,0.7-2.9,0.6C121.2,98.3,121.2,97.6,121.2,97.6z"/>
<path class="st5" d="M123,84.3c0,0,7.4-2,7.7,0.4c0.3,2.5-5.7,1.9-6.6,2.1c-0.9,0.2-0.7,1-0.7,1s0.5,3,0.5,3.7l-1.1,0
	c0,0-0.1-1.4-0.7-1.2c-0.6,0.1-0.4,3.4-0.4,3.4l-0.8,0.1c0,0-1.2-5.3-1.3-5.6c-0.1-0.3-0.4-2.5,1.3-2.2
	C120.9,85.9,120.2,84.5,123,84.3z"/>
<path class="st0" d="M70.9,108.9c8.6,0,15.6-7,15.6-15.6s-7-15.6-15.6-15.6s-15.6,7-15.6,15.6S62.2,108.9,70.9,108.9z"/>
<path class="st5" d="M75.5,92.9c1.1,0.8,3.5,3.9,2.4,5.8C76.6,101,64.4,93.4,75.5,92.9z"/>
<defs>
	<filter id="Adobe_OpacityMaskFilter_1_" filterUnits="userSpaceOnUse" x="57" y="97.1" width="28.1" height="22.2">
		<feColorMatrix  type="matrix" values="1 0 0 0 0  0 1 0 0 0  0 0 1 0 0  0 0 0 1 0"/>
	</filter>
</defs>
<mask maskUnits="userSpaceOnUse" x="57" y="97.1" width="28.1" height="22.2" id="mask1_1_">
	<path class="st6" d="M70.9,108.9c8.6,0,15.6-7,15.6-15.6s-7-15.6-15.6-15.6s-15.6,7-15.6,15.6S62.2,108.9,70.9,108.9z"/>
</mask>
<g class="st7">
	<path class="st3" d="M83.8,119.3c0,0,6.2-20.4-8.8-21.9c-13.8-1.4-19,2.5-17.9,12.2c1,9.7,0.7,9.7,0.7,9.7H83.8z"/>
</g>
<path class="st4" d="M67.3,96.9L67,86.1c0,0,8-1,8.5,0c1.8,1.8,0.5,7.8-0.5,8.2c-0.7,0.3-1.6,0.2-2,0.2v2.8c0,0-0.2,0.5-3,0.5
	C67.3,97.7,67.3,96.9,67.3,96.9z"/>
<path class="st5" d="M69,97.8c-3.7,1.9-4.6-0.3-4.6-0.3c-1,0.2-2.4,0.9-2.4,0.9c-0.5-2.3,0.2-3.9,3.7-7c-2-9.5,5.6-7.6,5.6-7.6
	s3.4-1.6,5-1.1c2.3,0.7,2.5,3.3,0.5,4.4c-1.2,0.7-3.9,1.2-5.9,0C69.8,89.9,72.4,96.2,69,97.8z"/>
<path class="st0" d="M17.7,108.9c8.6,0,15.6-7,15.6-15.6s-7-15.6-15.6-15.6S2,84.6,2,93.2S9,108.9,17.7,108.9z"/>
<defs>
	<filter id="Adobe_OpacityMaskFilter_2_" filterUnits="userSpaceOnUse" x="3.8" y="85.2" width="28.1" height="34.1">
		<feColorMatrix  type="matrix" values="1 0 0 0 0  0 1 0 0 0  0 0 1 0 0  0 0 0 1 0"/>
	</filter>
</defs>
<mask maskUnits="userSpaceOnUse" x="3.8" y="85.2" width="28.1" height="34.1" id="mask2_1_">
	<path class="st8" d="M17.7,108.9c8.6,0,15.6-7,15.6-15.6s-7-15.6-15.6-15.6S2,84.6,2,93.2S9,108.9,17.7,108.9z"/>
</mask>
<g class="st9">
	<path class="st3" d="M30.6,119.3c0,0,6.2-20.4-8.8-21.9C8,95.9,2.9,99.9,3.9,109.6c1,9.7,0.7,9.7,0.7,9.7H30.6z"/>
	<path class="st4" d="M14.1,97l0.1-10.3c0,0,7.6-2.3,7.9-1.3c1.6,4.1,1.4,8.9-0.7,9.4c-1.2,0.2-1.5,0.2-1.9,0.1l-0.1,2.4
		c0,0-0.2,0.7-2.9,0.6C14.1,97.8,14.1,97,14.1,97z"/>
</g>
<path class="st5" d="M13.5,84c2-1.9,5.9-2.1,7.6-0.3c1.6-0.5,3.1-1,4,0.7c0.6,1.3-0.4,2.5-1.7,3c-2.4,0.9-4.3-0.4-6.1,0.9
	c-1.7,1.2-0.9,2.8-1.6,4.5c-0.7,1.7-2.1,2.1-2.1,2.1s0.3-1.1,0.2-1.6c-0.5-1.7-1.6-2.6-1.9-4.3C11.6,86.8,11.9,85.5,13.5,84z"/>
<path class="st10" d="M35.3,45.8c-0.8,0-1.5-0.6-1.5-1.4c0-0.8,0.7-1.5,1.5-1.4l3.9,0.2c0.6,0,1.1,0.6,1.1,1.2s-0.5,1.2-1.1,1.2
	L35.3,45.8z M39.7,59.2c-0.7,0.4-1.6,0.3-2-0.5c-0.4-0.7-0.1-1.7,0.6-2l3.5-1.8c0.6-0.3,1.3-0.1,1.6,0.5c0.3,0.6,0.2,1.3-0.4,1.6
	L39.7,59.2z M38.3,32.1c-0.8-0.4-1.1-1.3-0.6-2c0.4-0.7,1.3-0.9,2-0.5l3.3,2.1c0.5,0.4,0.7,1.1,0.4,1.6c-0.3,0.5-1,0.8-1.6,0.5
	L38.3,32.1z"/>
<path class="st10" d="M106.4,45.8c0.8,0,1.5-0.6,1.5-1.4c0-0.8-0.7-1.5-1.5-1.4l-3.9,0.2c-0.6,0-1.1,0.6-1.1,1.2s0.5,1.2,1.1,1.2
	L106.4,45.8z M102,59.2c0.7,0.4,1.6,0.3,2-0.5c0.4-0.7,0.1-1.7-0.6-2L99.9,55c-0.6-0.3-1.3-0.1-1.6,0.5c-0.3,0.6-0.2,1.3,0.4,1.6
	L102,59.2z M103.4,32.1c0.8-0.4,1.1-1.3,0.6-2c-0.4-0.7-1.3-0.9-2-0.5l-3.3,2.1c-0.5,0.4-0.7,1.1-0.4,1.6c0.3,0.5,1,0.8,1.6,0.5
	L103.4,32.1z"/>
<path class="st0" d="M70.9,66.4c12.1,0,22-9.8,22-22s-9.8-22-22-22s-22,9.8-22,22S58.7,66.4,70.9,66.4z"/>
<defs>
	<filter id="Adobe_OpacityMaskFilter_3_" filterUnits="userSpaceOnUse" x="51.3" y="33.1" width="39.5" height="47.9">
		<feColorMatrix  type="matrix" values="1 0 0 0 0  0 1 0 0 0  0 0 1 0 0  0 0 0 1 0"/>
	</filter>
</defs>
<mask maskUnits="userSpaceOnUse" x="51.3" y="33.1" width="39.5" height="47.9" id="mask3_1_">
	<path class="st11" d="M70.9,66.4c12.1,0,22-9.8,22-22s-9.8-22-22-22s-22,9.8-22,22S58.7,66.4,70.9,66.4z"/>
</mask>
<g class="st12">
	<path class="st3" d="M89.1,81c0,0,8.7-28.7-12.4-30.9c-19.5-2-26.7,3.6-25.2,17.2C53,81,52.5,81,52.5,81H89.1z"/>
	<path class="st4" d="M65.9,49.7l0.2-14.5c0,0,10.6-3.2,11.1-1.8c2.2,5.7,2,12.5-1,13.2c-1.7,0.3-2.1,0.2-2.7,0.2l-0.1,3.4
		c0,0-0.3,1-4.1,0.9C65.9,50.8,65.9,49.7,65.9,49.7z"/>
</g>
<path class="st5" d="M65,31.5c2.8-2.6,8.3-2.9,10.7-0.5c2.2-0.7,4.4-1.5,5.6,1c0.9,1.8-0.6,3.5-2.4,4.1c-3.4,1.2-6.1-0.6-8.5,1.2
	c-2.4,1.8-1.2,3.9-2.2,6.3s-2.9,2.9-2.9,2.9s0.4-1.6,0.2-2.2c-0.7-2.4-2.3-3.7-2.7-6.1C62.3,35.4,62.8,33.6,65,31.5z"/>
</svg>
